<svg width="30" height="30" viewBox="0 0 30 30" fill="none" xmlns="http://www.w3.org/2000/svg">
<path d="M18.8155 0.790396L15.8658 0L13.38 9.2772L11.1357 0.901681L8.1859 1.69208L10.6107 10.7412L4.57116 4.70174L2.41176 6.86114L9.03633 13.4858L0.786488 11.2752L-0.00390625 14.225L9.01008 16.6403C8.90688 16.1951 8.85228 15.7313 8.85228 15.2548C8.85228 11.8816 11.5868 9.14707 14.96 9.14707C18.3332 9.14707 21.0677 11.8816 21.0677 15.2548C21.0677 15.7283 21.0138 16.1892 20.9119 16.6317L29.1039 18.8267L29.8942 15.877L20.8444 13.4521L29.0948 11.2414L28.3044 8.29162L19.2549 10.7164L25.2944 4.67695L23.135 2.51755L16.6023 9.05025L18.8155 0.790396Z" fill="url(#paint0_linear_1202_5923)"/>
<path d="M20.9032 16.6661C20.6503 17.7353 20.1164 18.6958 19.3838 19.4654L25.3186 25.4002L27.478 23.2408L20.9032 16.6661Z" fill="url(#paint1_linear_1202_5923)"/>
<path d="M19.3239 19.5274C18.5824 20.2847 17.6455 20.8498 16.5947 21.141L18.7543 29.2006L21.704 28.4101L19.3239 19.5274Z" fill="url(#paint2_linear_1202_5923)"/>
<path d="M16.4845 21.1705C15.997 21.2959 15.4861 21.3625 14.9595 21.3625C14.3953 21.3625 13.849 21.286 13.3304 21.1428L11.1689 29.2097L14.1186 30L16.4845 21.1705Z" fill="url(#paint3_linear_1202_5923)"/>
<path d="M13.2261 21.113C12.1914 20.8073 11.2711 20.235 10.5448 19.4756L4.5954 25.425L6.75479 27.5844L13.2261 21.113Z" fill="url(#paint4_linear_1202_5923)"/>
<path d="M10.4957 19.423C9.78189 18.6587 9.26191 17.711 9.01441 16.6583L0.795625 18.8605L1.58601 21.8103L10.4957 19.423Z" fill="url(#paint5_linear_1202_5923)"/>
<defs>
<linearGradient id="paint0_linear_1202_5923" x1="14.9452" y1="0" x2="14.9452" y2="30" gradientUnits="userSpaceOnUse">
<stop stop-color="white" stop-opacity="0.8"/>
<stop offset="1" stop-color="white" stop-opacity="0.5"/>
</linearGradient>
<linearGradient id="paint1_linear_1202_5923" x1="14.9452" y1="0" x2="14.9452" y2="30" gradientUnits="userSpaceOnUse">
<stop stop-color="white" stop-opacity="0.8"/>
<stop offset="1" stop-color="white" stop-opacity="0.5"/>
</linearGradient>
<linearGradient id="paint2_linear_1202_5923" x1="14.9452" y1="0" x2="14.9452" y2="30" gradientUnits="userSpaceOnUse">
<stop stop-color="white" stop-opacity="0.8"/>
<stop offset="1" stop-color="white" stop-opacity="0.5"/>
</linearGradient>
<linearGradient id="paint3_linear_1202_5923" x1="14.9452" y1="0" x2="14.9452" y2="30" gradientUnits="userSpaceOnUse">
<stop stop-color="white" stop-opacity="0.8"/>
<stop offset="1" stop-color="white" stop-opacity="0.5"/>
</linearGradient>
<linearGradient id="paint4_linear_1202_5923" x1="14.9452" y1="0" x2="14.9452" y2="30" gradientUnits="userSpaceOnUse">
<stop stop-color="white" stop-opacity="0.8"/>
<stop offset="1" stop-color="white" stop-opacity="0.5"/>
</linearGradient>
<linearGradient id="paint5_linear_1202_5923" x1="14.9452" y1="0" x2="14.9452" y2="30" gradientUnits="userSpaceOnUse">
<stop stop-color="white" stop-opacity="0.8"/>
<stop offset="1" stop-color="white" stop-opacity="0.5"/>
</linearGradient>
</defs>
</svg>
