<svg viewBox="0 0 134 48" fill="none" xmlns="http://www.w3.org/2000/svg">
  <g clip-path="url(#clip0_3205_1210)">
    <path
      d="M25.0887 5.05386L21.1557 4L17.8412 16.3696L14.8489 5.20224L10.9158 6.2561L14.1488 18.3216L6.09618 10.269L3.21699 13.1482L12.0497 21.981L1.04995 19.0336L-0.00390625 22.9666L12.0147 26.187C11.8771 25.5935 11.8043 24.9751 11.8043 24.3397C11.8043 19.8421 15.4503 16.1961 19.948 16.1961C24.4456 16.1961 28.0916 19.8421 28.0916 24.3397C28.0916 24.971 28.0197 25.5856 27.8838 26.1756L38.8065 29.1023L39.8603 25.1693L27.7939 21.9361L38.7944 18.9885L37.7405 15.0555L25.6746 18.2885L33.7272 10.2359L30.848 7.35674L22.1378 16.067L25.0887 5.05386Z"
      fill="#FF4405" />
    <path
      d="M27.8723 26.2214C27.5351 27.647 26.8232 28.9277 25.8464 29.9538L33.7594 37.8669L36.6386 34.9877L27.8723 26.2214Z"
      fill="#FF4405" />
    <path
      d="M25.7665 30.0366C24.7779 31.0463 23.5286 31.7998 22.1276 32.1881L25.007 42.9341L28.94 41.8802L25.7665 30.0366Z"
      fill="#FF4405" />
    <path
      d="M21.9807 32.2274C21.3307 32.3945 20.6494 32.4833 19.9473 32.4833C19.1951 32.4833 18.4667 32.3813 17.7752 32.1904L14.8932 42.9462L18.8262 44L21.9807 32.2274Z"
      fill="#FF4405" />
    <path
      d="M17.6361 32.1507C16.2565 31.7431 15.0294 30.98 14.061 29.9674L6.1285 37.8999L9.00769 40.7791L17.6361 32.1507Z"
      fill="#FF4405" />
    <path
      d="M13.9956 29.8973C13.0438 28.8783 12.3505 27.6147 12.0205 26.2111L1.06214 29.1474L2.11599 33.0804L13.9956 29.8973Z"
      fill="#FF4405" />
  </g>
  <path
    d="M63.5891 33H52.2221V14.91H63.0761C64.3181 14.91 65.3621 15.081 66.2081 15.423C67.0541 15.747 67.6931 16.242 68.1251 16.908C68.5571 17.556 68.7731 18.357 68.7731 19.311C68.7731 20.427 68.4491 21.363 67.8011 22.119C67.1531 22.857 66.0731 23.28 64.5611 23.388V23.631C66.2351 23.757 67.4771 24.207 68.2871 24.981C69.1151 25.755 69.5291 26.754 69.5291 27.978C69.5291 29.004 69.3131 29.895 68.8811 30.651C68.4491 31.407 67.7921 31.992 66.9101 32.406C66.0461 32.802 64.9391 33 63.5891 33ZM56.2721 25.44V29.355H63.1031C63.9311 29.355 64.5251 29.211 64.8851 28.923C65.2451 28.617 65.4251 28.104 65.4251 27.384C65.4251 26.664 65.2451 26.16 64.8851 25.872C64.5251 25.584 63.9311 25.44 63.1031 25.44H56.2721ZM56.2721 18.555V22.092H62.6171C63.3731 22.092 63.9131 21.957 64.2371 21.687C64.5611 21.399 64.7231 20.949 64.7231 20.337C64.7231 19.725 64.5521 19.275 64.2101 18.987C63.8681 18.699 63.3191 18.555 62.5631 18.555H56.2721ZM75.0738 33H71.0238V19.473H74.7768V23.334L75.0738 23.469V33ZM75.0738 25.17H74.2638V23.064H75.0198C75.1458 22.326 75.3888 21.669 75.7488 21.093C76.1268 20.499 76.6308 20.04 77.2608 19.716C77.8908 19.374 78.6558 19.203 79.5558 19.203C80.5818 19.203 81.4008 19.419 82.0128 19.851C82.6428 20.265 83.1018 20.832 83.3898 21.552C83.6778 22.254 83.8218 23.046 83.8218 23.928V26.169H79.7718V24.765C79.7718 24.009 79.6008 23.469 79.2588 23.145C78.9348 22.803 78.3588 22.632 77.5308 22.632C76.6308 22.632 75.9918 22.839 75.6138 23.253C75.2538 23.667 75.0738 24.306 75.0738 25.17ZM92.4975 33.27C90.9675 33.27 89.6175 32.982 88.4475 32.406C87.2955 31.83 86.3955 31.02 85.7475 29.976C85.0995 28.914 84.7755 27.672 84.7755 26.25C84.7755 24.81 85.0995 23.568 85.7475 22.524C86.3955 21.462 87.2955 20.643 88.4475 20.067C89.6175 19.491 90.9675 19.203 92.4975 19.203C94.0455 19.203 95.3955 19.491 96.5475 20.067C97.6995 20.643 98.5995 21.462 99.2475 22.524C99.8955 23.568 100.219 24.81 100.219 26.25C100.219 27.672 99.8955 28.914 99.2475 29.976C98.5995 31.02 97.6995 31.83 96.5475 32.406C95.3955 32.982 94.0455 33.27 92.4975 33.27ZM92.4975 29.679C93.8655 29.679 94.8195 29.409 95.3595 28.869C95.9175 28.311 96.1965 27.438 96.1965 26.25C96.1965 25.044 95.9175 24.162 95.3595 23.604C94.8195 23.046 93.8655 22.767 92.4975 22.767C91.1295 22.767 90.1665 23.046 89.6085 23.604C89.0685 24.162 88.7985 25.044 88.7985 26.25C88.7985 27.438 89.0685 28.311 89.6085 28.869C90.1665 29.409 91.1295 29.679 92.4975 29.679ZM109.082 33.27C107.552 33.27 106.211 32.982 105.059 32.406C103.907 31.83 103.016 31.02 102.386 29.976C101.774 28.914 101.468 27.672 101.468 26.25C101.468 24.81 101.774 23.568 102.386 22.524C103.016 21.462 103.907 20.643 105.059 20.067C106.211 19.491 107.552 19.203 109.082 19.203C110.54 19.203 111.818 19.446 112.916 19.932C114.014 20.418 114.869 21.102 115.481 21.984C116.093 22.848 116.399 23.865 116.399 25.035V25.413H112.376V25.197C112.376 24.333 112.079 23.73 111.485 23.388C110.891 23.028 110.063 22.848 109.001 22.848C107.795 22.848 106.904 23.1 106.328 23.604C105.77 24.108 105.491 24.99 105.491 26.25C105.491 27.474 105.77 28.347 106.328 28.869C106.904 29.373 107.795 29.625 109.001 29.625C110.063 29.625 110.891 29.454 111.485 29.112C112.079 28.752 112.376 28.14 112.376 27.276V27.06H116.399V27.438C116.399 28.608 116.093 29.634 115.481 30.516C114.869 31.38 114.014 32.055 112.916 32.541C111.818 33.027 110.54 33.27 109.082 33.27ZM131.804 33H128.024V29.787L127.808 29.733V25.008C127.808 24.126 127.583 23.532 127.133 23.226C126.701 22.92 125.945 22.767 124.865 22.767C123.839 22.767 123.101 22.92 122.651 23.226C122.201 23.532 121.976 24.072 121.976 24.846V24.954H117.899V24.873C117.899 23.757 118.196 22.776 118.79 21.93C119.384 21.066 120.221 20.4 121.301 19.932C122.399 19.446 123.686 19.203 125.162 19.203C126.674 19.203 127.916 19.446 128.888 19.932C129.878 20.418 130.607 21.102 131.075 21.984C131.561 22.848 131.804 23.874 131.804 25.062V33ZM122.3 33.27C120.842 33.27 119.699 32.946 118.871 32.298C118.043 31.65 117.629 30.768 117.629 29.652C117.629 28.968 117.791 28.383 118.115 27.897C118.439 27.411 118.925 27.024 119.573 26.736C120.221 26.43 121.031 26.223 122.003 26.115L128.078 25.494V27.816L123.11 28.383C122.624 28.419 122.264 28.518 122.03 28.68C121.814 28.824 121.706 29.058 121.706 29.382C121.706 29.742 121.85 30.003 122.138 30.165C122.426 30.327 122.867 30.408 123.461 30.408C124.433 30.408 125.234 30.318 125.864 30.138C126.494 29.958 126.971 29.67 127.295 29.274C127.637 28.86 127.808 28.311 127.808 27.627L128.186 27.6V29.895H127.808C127.502 30.939 126.881 31.767 125.945 32.379C125.027 32.973 123.812 33.27 122.3 33.27Z"
    fill="black" />
  <defs>
    <clipPath id="clip0_3205_1210">
      <rect width="40" height="48" fill="white" />
    </clipPath>
  </defs>
</svg>
