<svg width="48" height="48" viewBox="0 0 48 48" fill="none" xmlns="http://www.w3.org/2000/svg">
<path d="M29.0926 5.05386L25.1596 4L21.8452 16.3696L18.8528 5.20224L14.9197 6.2561L18.1527 18.3216L10.1001 10.269L7.22089 13.1482L16.0536 21.981L5.05386 19.0336L4 22.9666L16.0186 26.187C15.881 25.5935 15.8082 24.9751 15.8082 24.3397C15.8082 19.8421 19.4543 16.1961 23.9519 16.1961C28.4495 16.1961 32.0955 19.8421 32.0955 24.3397C32.0955 24.971 32.0236 25.5856 31.8877 26.1756L42.8104 29.1023L43.8642 25.1693L31.7978 21.9361L42.7983 18.9885L41.7444 15.0555L29.6785 18.2885L37.7311 10.2359L34.8519 7.35674L26.1417 16.067L29.0926 5.05386Z" fill="#FF4405"/>
<path d="M31.8762 26.2214C31.539 27.647 30.8271 28.9277 29.8503 29.9538L37.7633 37.8669L40.6425 34.9877L31.8762 26.2214Z" fill="#FF4405"/>
<path d="M29.7704 30.0366C28.7818 31.0463 27.5325 31.7998 26.1315 32.1881L29.0109 42.9341L32.9439 41.8802L29.7704 30.0366Z" fill="#FF4405"/>
<path d="M25.9846 32.2274C25.3346 32.3945 24.6533 32.4833 23.9512 32.4833C23.199 32.4833 22.4706 32.3813 21.7791 32.1904L18.8971 42.9462L22.8301 44L25.9846 32.2274Z" fill="#FF4405"/>
<path d="M21.64 32.1507C20.2604 31.7431 19.0333 30.98 18.0649 29.9674L10.1324 37.8999L13.0116 40.7791L21.64 32.1507Z" fill="#FF4405"/>
<path d="M17.9995 29.8973C17.0477 28.8783 16.3544 27.6147 16.0244 26.2111L5.06604 29.1474L6.11989 33.0804L17.9995 29.8973Z" fill="#FF4405"/>
</svg>
